<?xml version="1.0" encoding="utf-8"?>
<!-- Generator: Adobe Illustrator 19.0.0, SVG Export Plug-In . SVG Version: 6.00 Build 0)  -->
<svg version="1.1" xmlns="http://www.w3.org/2000/svg" xmlns:xlink="http://www.w3.org/1999/xlink" x="0px" y="0px"
	 viewBox="0 0 127.3 56.7" style="enable-background:new 0 0 127.3 56.7;" xml:space="preserve">
<style type="text/css">
	.st0{display:none;}
	.st1{display:inline;}
	.st2{fill:#FFFFFF;}
	.st3{fill:#F09E40;}
</style>
<g id="圖層_2" class="st0">
	<rect x="-4" y="-9.5" class="st1" width="136.7" height="75.3"/>
</g>
<g id="圖層_4">
	<g>
		<g>
			<path class="st2" d="M18.4,30.1h-5l-3-5.9H8.6v2.7h1v3.3H2.1v-3.3h1.1v-7.5H2.1v-3.1h7.2c2.2,0,4.6-0.1,6,0.5
				c1.7,0.7,2.2,1.9,2.2,3.3c0,0.9,0,1.7-0.8,2.5c-0.3,0.3-0.9,0.7-1.3,0.9l2.1,3.3h0.8V30.1z M12,20.4c0-1.4-1.1-1.4-1.9-1.4H8.6
				V22h1.2C10.8,22,12,21.7,12,20.4z"/>
			<path class="st2" d="M98.6,21.8h-2.4v-2.6h-1.9v7.6h1.4v3.2h-7.8v-3.2h1.3v-7.6h-1.8v2.6H85v-5.6h13.6V21.8z"/>
			<path class="st2" d="M110.6,26.5c0,1.3-0.7,2.2-1.8,3c-1,0.7-2.3,0.9-3.5,0.8c-1.7-0.2-2.9-1.2-2.9-1.2s0,1,0,1h-2.7
				c0,0,0-3.7,0-4.3h2.8c0.2,0.8,0.7,1.2,1.1,1.5c0.4,0.3,1,0.3,1.3,0.2c0.4-0.1,0.8-0.3,0.9-0.6c0.1-0.3,0.2-0.7,0-0.9
				c-0.4-0.6-0.7-0.5-1.9-1.2c-2.2-1.1-2.6-1.6-2.9-1.7c-1.3-0.9-1.5-2.4-1.5-3.4c0-1.3,0.6-2.4,1.6-3.1c0.9-0.6,1.6-0.7,2.9-0.7
				c0.9,0,1.7,0.1,2.9,0.9c0-0.2,0-0.6,0-0.6h3c0,0,0,3,0,3.9h-3c-0.1-1.2-0.8-1.6-1.8-1.8c-0.3-0.1-0.8,0-1,0.2
				c-0.3,0.4-0.3,0.7-0.2,1.1c0.1,0.5,1,0.7,2.3,1.3c2.1,1,2.9,1.6,3.4,2.2C110.6,24.4,110.6,25.4,110.6,26.5z"/>
			<path class="st2" d="M125.2,30.1h-13.7V27l7-8h-3.8v1.7h-3v-4.5h13.4v2.7l-7.4,8.1h4.4v-1.8h3.1V30.1z"/>
			<path class="st2" d="M32.9,18.1c-1.5-1.5-3.4-2.2-5.7-2.2c-2.3,0-4.2,0.7-5.7,2.2c-1.4,1.4-2.1,3.1-2.1,5.1
				c0,2.1,0.7,3.7,2.1,5.1c1.5,1.4,3.4,2.2,5.7,2.2c2.4,0,4.3-0.7,5.7-2.2c1.4-1.4,2.1-3.1,2.1-5C35,21.2,34.3,19.5,32.9,18.1z
				 M27.2,27c-1.5,0-1.8-1.7-1.8-3.9s0.2-3.9,1.8-3.9s1.8,1.7,1.8,3.9S28.7,27,27.2,27z"/>
			<path class="st2" d="M47.9,24c-0.7,1.8-1.3,3.2-2.7,3.1c-0.9,0-1.6-0.5-1.9-1c-0.5-0.7-0.6-1.5-0.6-2.8c0-1.6,0.3-2.5,0.7-3.1
				c0.6-0.8,1-1,1.7-1c1.3,0,1.7,0.8,2.4,1.9h0.2h3.2v-4.9h-3.2v1c-1.1-0.8-2.3-1.4-3.6-1.4c-2.5,0-4,0.6-5.4,2
				c-1.3,1.3-1.8,3.4-1.8,5.6c0,2,0.7,3.7,2.2,5c1.5,1.3,3.3,2,5.6,2c2.9,0,5.8-1.4,6.9-5L47.9,24z"/>
			<polygon class="st2" points="60.1,30.1 52.6,30.1 52.6,26.8 53.6,26.8 53.6,19.2 52.6,19.2 52.6,16.2 60.1,16.2 60.1,19.2 
				58.8,19.2 58.8,26.8 60.1,26.8 			"/>
			<path class="st2" d="M79.9,25.7v1.2h-5.6v-2.8h4.8v-2.2h-4.8v-2.6h5.6v1h3.4v-4.1H72.8h-1.6h-6L59,22.8l6.8,7.3h17.5v-4.3H79.9z
				 M68.9,26.9l-3.6-4.3l3.1-3.3h2.9v7.6H68.9z"/>
		</g>
		<path class="st3" d="M88.3,37.1c0-0.2-1.3-0.7-3-0.9c-0.2-1.7-0.7-3-0.9-3c-0.2,0-0.8,1.3-0.9,3c-1.7,0.2-3,0.7-3,0.9
			c0,0.2,1.3,0.8,3,0.9c0.2,1.7,0.7,3,0.9,3c0.2,0,0.7-1.3,0.9-3C87,37.9,88.3,37.3,88.3,37.1z"/>
		<path class="st3" d="M48.1,7.4c0-0.2-1.7-1-3.9-1.2C44,4,43.3,2.3,43,2.3c-0.3,0-1,1.7-1.2,3.9c-2.3,0.2-3.9,0.9-3.9,1.2
			c0,0.3,1.7,1,3.9,1.2c0.2,2.3,0.9,3.9,1.2,3.9c0.2,0,1-1.7,1.2-3.9C46.5,8.4,48.1,7.7,48.1,7.4z"/>
		<g>
			<g>
				<path class="st2" d="M49.2,32.2c-2.1,0.6-3.6,0.8-3.7,0.5c-0.1-0.1,0.1-0.5,0.5-0.9h-2.9c-0.5,0.9-0.8,1.6-0.5,2.1
					c0.7,1.3,3.2,1.5,7.8,0.2c0.8-0.2,1.6-0.5,2.5-0.8c1.3-0.4,2.7-0.9,4.2-1.6H49C49.1,31.9,49.2,32,49.2,32.2z"/>
				<path class="st2" d="M65.6,39.2c-3.8,0-7.2-1.3-10-3.4c2.8-1.2,5.8-2.5,9.1-4H59c-1.8,0.8-3.6,1.5-5.4,2.2
					c-0.8,0.3-1.6,0.6-2.4,0.9c-9.7,3.5-18.2,5.7-18.9,4.5c-0.5-0.9,2.1-3.7,7.2-7.6h-4.1c-4.3,3.8-6.6,6.9-5.7,8.6
					c1.5,3,9.1,2.2,23.4-3.5c3.4,3,7.7,4.8,12.6,4.8c7.1,0,13.4-4,16.7-9.8h-2.8C76.5,36.2,71.4,39.2,65.6,39.2z"/>
			</g>
			<g>
				<path class="st2" d="M94.5,7.6c-1.2-1.8-8.2,0.3-12.9,2.3c0.8,0.1,1.2,0.1,1.6,0.1c3.1-0.6,9.6-1.9,9.8-1.3c0.3,0.8-4,4.9-5,5.8
					h1.2C90.9,13.3,96,9.7,94.5,7.6z"/>
				<path class="st2" d="M65.6,5.2c4,0,7.7,1.4,10.6,3.8c-3.6,1.5-7.7,3.3-12.2,5.4h5.2c2.9-1.3,5.9-2.5,8.8-3.6
					c0.2,0.2,0.4,0.5,0.6,0.7c-2.1,0.7-4.6,1.6-7.5,2.9h5.2c1.2-0.4,2.4-0.8,3.5-1.1c0.2,0.4,0.4,0.7,0.6,1.1h2.7
					c-0.3-0.6-0.5-1.2-0.8-1.7c1.9-0.4,3.1-0.6,3.2-0.3c0.1,0.2-0.6,1-1.9,2.1h3.2c1.2-1.4,1.7-2.5,1.3-3.2c-0.6-1.3-2.8-1.6-7-0.4
					c-0.2-0.3-0.4-0.6-0.7-0.9C90,6.5,98.2,4.5,98.9,5.7c0.5,0.9-3.5,4.5-9.4,8.8h4.7c5.3-4.2,8-7.8,7.1-9.7c-1.5-3-8-2.5-22.5,3.3
					c-3.4-3.2-8-5.2-13-5.2c-7.8,0-14.6,4.8-17.5,11.6h2.6C53.6,9,59.2,5.2,65.6,5.2z"/>
			</g>
		</g>
	</g>
	<g>
		<path class="st2" d="M40.6,44.8h1.2c0,1.9,0,2.9,0,2.9c0,0.1,0,0.2,0,0.4c0.3,0.9,0.7,1.7,1.2,2.3c0.7,1,1.6,1.8,2.9,2.4l-0.7,1.1
			c-1.1-0.6-2-1.3-2.5-2c-0.5-0.5-0.8-1.1-1.2-1.8c-0.2,0.6-0.5,1.1-0.8,1.5c-0.8,1-1.9,1.7-3.3,2.2l-0.5-1.1c1.3-0.5,2.3-1.2,2.9-2
			c0.6-0.8,0.9-2,0.9-3.4C40.6,47.3,40.6,46.4,40.6,44.8z M38.3,46.1l1.1,0.4c-0.3,1.4-0.6,2.6-1,3.5l-1.1-0.6
			C37.7,48.4,38.1,47.3,38.3,46.1z M43.9,46l1.1,0.4c-0.3,1.3-0.6,2.5-1,3.4l-1.1-0.6C43.4,48.2,43.7,47.2,43.9,46z"/>
		<path class="st2" d="M51.3,44.7l1,0.3c0,0.1-0.1,0.2-0.1,0.4h2.6v0.5c0-0.1,0.1-0.1,0.1-0.2c0.2-0.4,0.4-0.7,0.5-1l1,0.3
			c0,0.1-0.1,0.3-0.1,0.4h2.9v1H58c0.1,0.1,0.2,0.2,0.3,0.3l-1,0.6c-0.2-0.3-0.4-0.6-0.6-0.9h-0.8c-0.2,0.4-0.5,0.7-0.7,1l-0.9-0.7
			c0.1-0.1,0.2-0.2,0.3-0.3h-0.9c0.2,0.1,0.3,0.3,0.4,0.4l-0.5,0.3c0.1,0.2,0.2,0.3,0.3,0.5h1.7c0.1-0.3,0.2-0.6,0.3-0.8l1.2,0.4
			c-0.1,0.2-0.2,0.3-0.3,0.5h2.5v0.9h-8.7v-0.9h2c-0.1-0.1-0.1-0.2-0.2-0.4l0.6-0.3c-0.1-0.2-0.3-0.5-0.4-0.7h-0.5
			c-0.2,0.4-0.4,0.8-0.7,1.1l-0.9-0.7c0.2-0.3,0.5-0.6,0.6-1C51,45.4,51.2,45.1,51.3,44.7z M54.8,49v3.7c0,0.8-0.4,1.2-1.2,1.2
			c-0.2,0-0.4,0-0.6-0.1l-0.2-1.1c0.3,0.1,0.6,0.2,0.8,0.2c0.1,0,0.1-0.1,0.1-0.4h-1.8v1.4h-1.1V49H54.8z M51.9,50.2h1.8v-0.4h-1.8
			V50.2z M51.9,51.5h1.8v-0.4h-1.8V51.5z M55.5,49.3h1.1v3.4h-1.1V49.3z M57.5,48.9h1.1v3.6c0,0.5-0.1,0.8-0.2,1
			c-0.2,0.2-0.5,0.3-0.9,0.3c-0.3,0-0.7,0-1-0.1l-0.2-1.1c0.3,0.1,0.6,0.1,1,0.1c0.1,0,0.1,0,0.1-0.1c0-0.1,0-0.2,0-0.5V48.9z"/>
		<path class="st2" d="M67.4,44.8l0.5,1c-0.5,0.1-0.9,0.1-1.4,0.2v1.2H68v1.1h-1.5v0.5c0.6,0.4,1,0.9,1.4,1.3l-0.6,0.9
			c-0.3-0.3-0.5-0.7-0.8-1v3.7h-1.2v-3.2c0,0,0,0.1,0,0.1c-0.2,0.4-0.5,0.8-0.9,1.2l-0.8-0.7c0.4-0.5,0.8-1,1.1-1.6
			c0.2-0.4,0.4-0.9,0.5-1.3h-1.5v-1.1h1.6v-1.1c-0.4,0-0.7,0.1-1.1,0.1l-0.4-1.1C65.1,45.1,66.3,45,67.4,44.8z M72.8,50.2l0.1,1.1
			L72,51.4v2.5h-1.2v-2.3l-3,0.5L67.6,51l3.3-0.5v-5.7H72v5.5L72.8,50.2z M69,47.8c0.5,0.4,1,0.8,1.4,1.2l-0.8,1
			c-0.5-0.5-1-1-1.5-1.4L69,47.8z M69.5,45.5c0.5,0.3,0.9,0.7,1.3,1.1l-0.8,1c-0.4-0.5-0.9-0.9-1.3-1.2L69.5,45.5z"/>
		<path class="st2" d="M77.4,46.4h1.2v-1.6h1.1v1.6h1.1v1.1h-1.1V49c0.3-0.1,0.6-0.2,0.9-0.3l0.2,1c-0.4,0.2-0.7,0.3-1.1,0.5v2.2
			c0,0.6-0.1,1-0.2,1.2c-0.2,0.2-0.5,0.4-1,0.4c-0.3,0-0.6,0-0.9-0.1l-0.2-1.2c0.3,0.1,0.6,0.1,0.9,0.1c0.1,0,0.2,0,0.2-0.1
			c0-0.1,0-0.3,0-0.5v-1.5c-0.3,0.1-0.6,0.2-0.9,0.3l-0.4-1.2c0.5-0.1,0.9-0.2,1.3-0.4v-1.8h-1.2V46.4z M81,46H83v-1.2h1.1V46h2.2
			v1.1h-2.2v1.3H86v0.8c-0.4,1.1-0.9,1.9-1.5,2.6c0.5,0.4,1.1,0.7,1.9,1l-0.6,1.2c-0.8-0.3-1.5-0.8-2.2-1.3c-0.7,0.6-1.5,1-2.5,1.3
			l-0.5-1.1c0.9-0.2,1.7-0.6,2.3-1c-0.5-0.7-0.9-1.4-1.3-2.3h-0.5v-1H83v-1.3H81V46z M83.7,51c0.4-0.5,0.7-1,1-1.6h-2
			C83,50,83.3,50.6,83.7,51z"/>
	</g>
</g>
</svg>
